  0
SECTION
  2
HEADER
  9
$ACADVER
  1
AC1009
  9
$DWGCODEPAGE
  3
ansi_1252
  9
$INSBASE
 10
0.0
 20
0.0
 30
0.0
  9
$EXTMIN
 10
31.0104105242754
 20
-27.125
 30
0.0
  9
$EXTMAX
 10
45.2604105242754
 20
40.375
 30
0.0
  9
$LIMMIN
 10
0.0
 20
0.0
  9
$LIMMAX
 10
12.0
 20
9.0
  9
$ORTHOMODE
 70
     0
  9
$REGENMODE
 70
     1
  9
$FILLMODE
 70
     1
  9
$QTEXTMODE
 70
     0
  9
$MIRRTEXT
 70
     1
  9
$DRAGMODE
 70
     2
  9
$LTSCALE
 40
1.0
  9
$OSMODE
 70
    37
  9
$ATTMODE
 70
     1
  9
$TEXTSIZE
 40
0.2
  9
$TRACEWID
 40
0.05
  9
$TEXTSTYLE
  7
STANDARD
  9
$CLAYER
  8
0
  9
$CELTYPE
  6
BYLAYER
  9
$CECOLOR
 62
   256
  9
$DIMSCALE
 40
1.0
  9
$DIMASZ
 40
0.18
  9
$DIMEXO
 40
0.0625
  9
$DIMDLI
 40
0.38
  9
$DIMRND
 40
0.0
  9
$DIMDLE
 40
0.0
  9
$DIMEXE
 40
0.18
  9
$DIMTP
 40
0.0
  9
$DIMTM
 40
0.0
  9
$DIMTXT
 40
0.18
  9
$DIMCEN
 40
0.09
  9
$DIMTSZ
 40
0.0
  9
$DIMTOL
 70
     0
  9
$DIMLIM
 70
     0
  9
$DIMTIH
 70
     1
  9
$DIMTOH
 70
     1
  9
$DIMSE1
 70
     0
  9
$DIMSE2
 70
     0
  9
$DIMTAD
 70
     0
  9
$DIMZIN
 70
     0
  9
$DIMBLK
  1

  9
$DIMASO
 70
     1
  9
$DIMSHO
 70
     1
  9
$DIMPOST
  1

  9
$DIMAPOST
  1

  9
$DIMALT
 70
     0
  9
$DIMALTD
 70
     2
  9
$DIMALTF
 40
25.4
  9
$DIMLFAC
 40
1.0
  9
$DIMTOFL
 70
     0
  9
$DIMTVP
 40
0.0
  9
$DIMTIX
 70
     0
  9
$DIMSOXD
 70
     0
  9
$DIMSAH
 70
     0
  9
$DIMBLK1
  1

  9
$DIMBLK2
  1

  9
$DIMSTYLE
  2
STANDARD
  9
$DIMCLRD
 70
     0
  9
$DIMCLRE
 70
     0
  9
$DIMCLRT
 70
     0
  9
$DIMTFAC
 40
1.0
  9
$DIMGAP
 40
0.09
  9
$LUNITS
 70
     2
  9
$LUPREC
 70
     4
  9
$SKETCHINC
 40
0.1
  9
$FILLETRAD
 40
0.5
  9
$AUNITS
 70
     0
  9
$AUPREC
 70
     0
  9
$MENU
  1
.
  9
$ELEVATION
 40
0.0
  9
$PELEVATION
 40
0.0
  9
$THICKNESS
 40
0.0
  9
$LIMCHECK
 70
     0
  9
$CHAMFERA
 40
0.0
  9
$CHAMFERB
 40
0.0
  9
$SKPOLY
 70
     0
  9
$TDCREATE
 40
2454910.5
  9
$TDUPDATE
 40
2457361.445743391
  9
$TDINDWG
 40
0.0000000116
  9
$TDUSRTIMER
 40
0.0000000116
  9
$USRTIMER
 70
     1
  9
$ANGBASE
 50
0.0
  9
$ANGDIR
 70
     0
  9
$PDMODE
 70
     0
  9
$PDSIZE
 40
0.0
  9
$PLINEWID
 40
0.0
  9
$COORDS
 70
     1
  9
$SPLFRAME
 70
     0
  9
$SPLINETYPE
 70
     6
  9
$SPLINESEGS
 70
     8
  9
$ATTDIA
 70
     0
  9
$ATTREQ
 70
     1
  9
$HANDLING
 70
     1
  9
$HANDSEED
  5
198
  9
$SURFTAB1
 70
     6
  9
$SURFTAB2
 70
     6
  9
$SURFTYPE
 70
     6
  9
$SURFU
 70
     6
  9
$SURFV
 70
     6
  9
$UCSNAME
  2

  9
$UCSORG
 10
0.0
 20
0.0
 30
0.0
  9
$UCSXDIR
 10
1.0
 20
0.0
 30
0.0
  9
$UCSYDIR
 10
0.0
 20
1.0
 30
0.0
  9
$PUCSNAME
  2

  9
$PUCSORG
 10
0.0
 20
0.0
 30
0.0
  9
$PUCSXDIR
 10
1.0
 20
0.0
 30
0.0
  9
$PUCSYDIR
 10
0.0
 20
1.0
 30
0.0
  9
$USERI1
 70
     0
  9
$USERI2
 70
     0
  9
$USERI3
 70
     0
  9
$USERI4
 70
     0
  9
$USERI5
 70
     0
  9
$USERR1
 40
0.0
  9
$USERR2
 40
0.0
  9
$USERR3
 40
0.0
  9
$USERR4
 40
0.0
  9
$USERR5
 40
0.0
  9
$WORLDVIEW
 70
     1
  9
$SHADEDGE
 70
     3
  9
$SHADEDIF
 70
    70
  9
$TILEMODE
 70
     1
  9
$MAXACTVP
 70
    64
  9
$PLIMCHECK
 70
     0
  9
$PEXTMIN
 10
1.000000000000000E+20
 20
1.000000000000000E+20
 30
1.000000000000000E+20
  9
$PEXTMAX
 10
-1.000000000000000E+20
 20
-1.000000000000000E+20
 30
-1.000000000000000E+20
  9
$PLIMMIN
 10
0.0
 20
0.0
  9
$PLIMMAX
 10
12.0
 20
9.0
  9
$UNITMODE
 70
     0
  9
$VISRETAIN
 70
     1
  9
$PLINEGEN
 70
     0
  9
$PSLTSCALE
 70
     1
  0
ENDSEC
  0
SECTION
  2
TABLES
  0
TABLE
  2
VPORT
 70
     1
  0
VPORT
  2
*ACTIVE
 70
     0
 10
0.0
 20
0.0
 11
1.0
 21
1.0
 12
10.42990654205607
 22
4.5
 13
0.0
 23
0.0
 14
0.5
 24
0.5
 15
0.5
 25
0.5
 16
0.0
 26
0.0
 36
1.0
 17
0.0
 27
0.0
 37
0.0
 40
9.0
 41
1.972972972850329
 42
50.0
 43
0.0
 44
0.0
 50
0.0
 51
0.0
 71
     0
 72
   100
 73
     1
 74
     3
 75
     0
 76
     0
 77
     0
 78
     0
  0
ENDTAB
  0
TABLE
  2
LTYPE
 70
     2
  0
LTYPE
  2
CONTINUOUS
 70
     0
  3
Solid line
 72
    65
 73
     0
 40
0.0
  0
LTYPE
  2
CONTINUOUS2
 70
     0
  3
Solid Line
 72
    65
 73
     0
 40
0.0
  0
ENDTAB
  0
TABLE
  2
LAYER
 70
     2
  0
LAYER
  2
0
 70
     0
 62
     7
  6
CONTINUOUS
  0
LAYER
  2
MOVE
 70
     0
 62
    18
  6
CONTINUOUS
  0
ENDTAB
  0
TABLE
  2
STYLE
 70
     1
  0
STYLE
  2
STANDARD
 70
     0
 40
0.0
 41
1.0
 50
0.0
 71
     0
 42
0.2
  3
txt
  4

  0
ENDTAB
  0
TABLE
  2
VIEW
 70
     0
  0
ENDTAB
  0
TABLE
  2
UCS
 70
     0
  0
ENDTAB
  0
TABLE
  2
APPID
 70
     1
  0
APPID
  2
ACAD
 70
     0
  0
ENDTAB
  0
TABLE
  2
DIMSTYLE
 70
     1
  0
DIMSTYLE
  2
STANDARD
 70
     0
  3

  4

  5

  6

  7

 40
1.0
 41
0.18
 42
0.0625
 43
0.38
 44
0.18
 45
0.0
 46
0.0
 47
0.0
 48
0.0
140
0.18
141
0.09
142
0.0
143
25.4
144
1.0
145
0.0
146
1.0
147
0.09
 71
     0
 72
     0
 73
     1
 74
     1
 75
     0
 76
     0
 77
     0
 78
     0
170
     0
171
     2
172
     0
173
     0
174
     0
175
     0
176
     0
177
     0
178
     0
  0
ENDTAB
  0
ENDSEC
  0
SECTION
  2
BLOCKS
  0
BLOCK
  8
0
  2
$MODEL_SPACE
 70
     0
 10
0.0
 20
0.0
 30
0.0
  3
$MODEL_SPACE
  1

  0
ENDBLK
  5
21
  8
0
  0
BLOCK
 67
     1
  8
0
  2
$PAPER_SPACE
 70
     0
 10
0.0
 20
0.0
 30
0.0
  3
$PAPER_SPACE
  1

  0
ENDBLK
  5
1D
 67
     1
  8
0
  0
ENDSEC
  0
SECTION
  2
ENTITIES
  0
POLYLINE
  5
70
  8
MOVE
 66
     1
 10
0.0
 20
0.0
 30
0.0
 70
     1
  0
VERTEX
  5
7A
  8
MOVE
 10
42.57751301747216
 20
-25.57453556133129
 30
0.0
  0
VERTEX
  5
7B
  8
MOVE
 10
42.5658643875672
 20
-25.57926927652405
 30
0.0
  0
VERTEX
  5
7C
  8
MOVE
 10
42.55393871219493
 20
-25.58341936259704
 30
0.0
  0
VERTEX
  5
7D
  8
MOVE
 10
42.54176014226285
 20
-25.58697116899708
 30
0.0
  0
VERTEX
  5
7E
  8
MOVE
 10
42.52935282867842
 20
-25.58991004517095
 30
0.0
  0
VERTEX
  5
7F
  8
MOVE
 10
42.51674092234914
 20
-25.59222134056546
 30
0.0
  0
VERTEX
  5
80
  8
MOVE
 10
42.50394857418252
 20
-25.5938904046274
 30
0.0
  0
VERTEX
  5
81
  8
MOVE
 10
42.49099993508601
 20
-25.59490258680358
 30
0.0
  0
VERTEX
  5
82
  8
MOVE
 10
42.47791915596711
 20
-25.5952432365408
 30
0.0
  0
SEQEND
  5
195
  8
MOVE
  0
POLYLINE
  5
71
  8
MOVE
 66
     1
 10
0.0
 20
0.0
 30
0.0
 70
     1
  0
VERTEX
  5
83
  8
MOVE
 10
33.46409862318649
 20
-25.19947338471697
 30
0.0
  0
VERTEX
  5
84
  8
MOVE
 10
33.45095634195233
 20
-25.1619167420718
 30
0.0
  0
VERTEX
  5
85
  8
MOVE
 10
33.43830446110886
 20
-25.12421445320403
 30
0.0
  0
VERTEX
  5
86
  8
MOVE
 10
33.42614376104338
 20
-25.08637135720526
 30
0.0
  0
VERTEX
  5
87
  8
MOVE
 10
33.41447502214318
 20
-25.04839229316707
 30
0.0
  0
VERTEX
  5
88
  8
MOVE
 10
33.40329902479554
 20
-25.01028210018107
 30
0.0
  0
VERTEX
  5
89
  8
MOVE
 10
33.39261654938776
 20
-24.97204561733886
 30
0.0
  0
VERTEX
  5
8A
  8
MOVE
 10
33.38242837630712
 20
-24.93368768373205
 30
0.0
  0
VERTEX
  5
8B
  8
MOVE
 10
33.3727352859409
 20
-24.89521313845222
 30
0.0
  0
VERTEX
  5
8C
  8
MOVE
 10
33.3635380586764
 20
-24.85662682059097
 30
0.0
  0
VERTEX
  5
8D
  8
MOVE
 10
33.3548374749009
 20
-24.81793356923991
 30
0.0
  0
VERTEX
  5
8E
  8
MOVE
 10
33.34663431500171
 20
-24.77913822349064
 30
0.0
  0
VERTEX
  5
8F
  8
MOVE
 10
33.33892935936611
 20
-24.74024562243475
 30
0.0
  0
VERTEX
  5
90
  8
MOVE
 10
33.33172338838136
 20
-24.70126060516384
 30
0.0
  0
VERTEX
  5
91
  8
MOVE
 10
33.32501718243478
 20
-24.66218801076951
 30
0.0
  0
VERTEX
  5
92
  8
MOVE
 10
33.31881152191366
 20
-24.62303267834337
 30
0.0
  0
VERTEX
  5
93
  8
MOVE
 10
33.31310718720526
 20
-24.583799446977
 30
0.0
  0
VERTEX
  5
94
  8
MOVE
 10
33.30790495869689
 20
-24.54449315576202
 30
0.0
  0
VERTEX
  5
95
  8
MOVE
 10
33.30320561677584
 20
-24.50511864379001
 30
0.0
  0
VERTEX
  5
96
  8
MOVE
 10
33.29900994182939
 20
-24.46568075015257
 30
0.0
  0
VERTEX
  5
97
  8
MOVE
 10
33.29531871424483
 20
-24.42618431394132
 30
0.0
  0
VERTEX
  5
98
  8
MOVE
 10
33.29213271440945
 20
-24.38663417424783
 30
0.0
  0
VERTEX
  5
99
  8
MOVE
 10
33.28945272271054
 20
-24.34703517016373
 30
0.0
  0
VERTEX
  5
9A
  8
MOVE
 10
33.28727951953538
 20
-24.30739214078059
 30
0.0
  0
VERTEX
  5
9B
  8
MOVE
 10
33.28561388527128
 20
-24.26770992519003
 30
0.0
  0
VERTEX
  5
9C
  8
MOVE
 10
33.28445660030551
 20
-24.22799336248364
 30
0.0
  0
VERTEX
  5
9D
  8
MOVE
 10
33.28380844502536
 20
-24.18824729175302
 30
0.0
  0
VERTEX
  5
9E
  8
MOVE
 10
33.28367019981812
 20
-24.14847655208976
 30
0.0
  0
VERTEX
  5
9F
  8
MOVE
 10
33.28404264507108
 20
-24.10868598258548
 30
0.0
  0
VERTEX
  5
A0
  8
MOVE
 10
33.28492656117152
 20
-24.06888042233176
 30
0.0
  0
VERTEX
  5
A1
  8
MOVE
 10
33.28632272850674
 20
-24.02906471042021
 30
0.0
  0
VERTEX
  5
A2
  8
MOVE
 10
33.28823192746403
 20
-23.98924368594242
 30
0.0
  0
VERTEX
  5
A3
  8
MOVE
 10
33.29065493843066
 20
-23.94942218799
 30
0.0
  0
VERTEX
  5
A4
  8
MOVE
 10
33.33045026412515
 20
-23.35817218799
 30
0.0
  0
VERTEX
  5
A5
  8
MOVE
 10
33.36925683529432
 20
-22.76692218798999
 30
0.0
  0
VERTEX
  5
A6
  8
MOVE
 10
33.40708364542738
 20
-22.17567218798999
 30
0.0
  0
VERTEX
  5
A7
  8
MOVE
 10
33.44393952075995
 20
-21.58442218799
 30
0.0
  0
VERTEX
  5
A8
  8
MOVE
 10
33.47983312486744
 20
-20.99317218799
 30
0.0
  0
VERTEX
  5
A9
  8
MOVE
 10
33.51477296309199
 20
-20.40192218799
 30
0.0
  0
VERTEX
  5
AA
  8
MOVE
 10
33.54876738681242
 20
-19.81067218799
 30
0.0
  0
VERTEX
  5
AB
  8
MOVE
 10
33.5818245975612
 20
-19.21942218798999
 30
0.0
  0
VERTEX
  5
AC
  8
MOVE
 10
33.61395265099797
 20
-18.62817218798999
 30
0.0
  0
VERTEX
  5
AD
  8
MOVE
 10
33.64515946074399
 20
-18.03692218799
 30
0.0
  0
VERTEX
  5
AE
  8
MOVE
 10
33.67545280208464
 20
-17.44567218799
 30
0.0
  0
VERTEX
  5
AF
  8
MOVE
 10
33.70484031554448
 20
-16.85442218799
 30
0.0
  0
VERTEX
  5
B0
  8
MOVE
 10
33.73332951034126
 20
-16.26317218799
 30
0.0
  0
VERTEX
  5
B1
  8
MOVE
 10
33.76092776772356
 20
-15.67192218799
 30
0.0
  0
VERTEX
  5
B2
  8
MOVE
 10
33.78764234419655
 20
-15.08067218798999
 30
0.0
  0
VERTEX
  5
B3
  8
MOVE
 10
33.81348037464113
 20
-14.48942218799001
 30
0.0
  0
VERTEX
  5
B4
  8
MOVE
 10
33.83844887533029
 20
-13.89817218799
 30
0.0
  0
VERTEX
  5
B5
  8
MOVE
 10
33.86255474684701
 20
-13.30692218799
 30
0.0
  0
VERTEX
  5
B6
  8
MOVE
 10
33.88580477690836
 20
-12.71567218799
 30
0.0
  0
VERTEX
  5
B7
  8
MOVE
 10
33.9082056430981
 20
-12.12442218799
 30
0.0
  0
VERTEX
  5
B8
  8
MOVE
 10
33.92976391551244
 20
-11.53317218799
 30
0.0
  0
VERTEX
  5
B9
  8
MOVE
 10
33.95048605932273
 20
-10.94192218799
 30
0.0
  0
VERTEX
  5
BA
  8
MOVE
 10
33.97037843725693
 20
-10.35067218799
 30
0.0
  0
VERTEX
  5
BB
  8
MOVE
 10
33.98944731200416
 20
-9.759422187990001
 30
0.0
  0
VERTEX
  5
BC
  8
MOVE
 10
34.00769884854552
 20
-9.168172187989999
 30
0.0
  0
VERTEX
  5
BD
  8
MOVE
 10
34.02513911641224
 20
-8.576922187989997
 30
0.0
  0
VERTEX
  5
BE
  8
MOVE
 10
34.04176920568809
 20
-7.985672187990101
 30
0.0
  0
VERTEX
  5
BF
  8
MOVE
 10
34.05758525367832
 20
-7.394422187990099
 30
0.0
  0
VERTEX
  5
C0
  8
MOVE
 10
34.0725833555612
 20
-6.803172187990096
 30
0.0
  0
VERTEX
  5
C1
  8
MOVE
 10
34.08675956370229
 20
-6.211922187990101
 30
0.0
  0
VERTEX
  5
C2
  8
MOVE
 10
34.10010988695457
 20
-5.620672187990099
 30
0.0
  0
VERTEX
  5
C3
  8
MOVE
 10
34.11263028994234
 20
-5.029422187990097
 30
0.0
  0
VERTEX
  5
C4
  8
MOVE
 10
34.12431669233001
 20
-4.438172187990101
 30
0.0
  0
VERTEX
  5
C5
  8
MOVE
 10
34.13516496807467
 20
-3.846922187990099
 30
0.0
  0
VERTEX
  5
C6
  8
MOVE
 10
34.14517094466215
 20
-3.255672187990097
 30
0.0
  0
VERTEX
  5
C7
  8
MOVE
 10
34.1543304023263
 20
-2.664422187990102
 30
0.0
  0
VERTEX
  5
C8
  8
MOVE
 10
34.16263907325048
 20
-2.0731721879901
 30
0.0
  0
VERTEX
  5
C9
  8
MOVE
 10
34.17009264075094
 20
-1.481922187990097
 30
0.0
  0
VERTEX
  5
CA
  8
MOVE
 10
34.17668673844241
 20
-0.8906721879901021
 30
0.0
  0
VERTEX
  5
CB
  8
MOVE
 10
34.18241694938409
 20
-0.2994221879900998
 30
0.0
  0
VERTEX
  5
CC
  8
MOVE
 10
34.18727880520667
 20
0.291827812010002
 30
0.0
  0
VERTEX
  5
CD
  8
MOVE
 10
34.19126778521827
 20
0.8830778120100042
 30
0.0
  0
VERTEX
  5
CE
  8
MOVE
 10
34.19437931549105
 20
1.474327812009999
 30
0.0
  0
VERTEX
  5
CF
  8
MOVE
 10
34.19660876792558
 20
2.065577812010002
 30
0.0
  0
VERTEX
  5
D0
  8
MOVE
 10
34.19795145929385
 20
2.656827812010004
 30
0.0
  0
VERTEX
  5
D1
  8
MOVE
 10
34.19840265025966
 20
3.248077812009999
 30
0.0
  0
VERTEX
  5
D2
  8
MOVE
 10
34.19795754437554
 20
3.839327812010001
 30
0.0
  0
VERTEX
  5
D3
  8
MOVE
 10
34.19661128705638
 20
4.430577812010004
 30
0.0
  0
VERTEX
  5
D4
  8
MOVE
 10
34.194358964528
 20
5.021827812009999
 30
0.0
  0
VERTEX
  5
D5
  8
MOVE
 10
34.19119560275089
 20
5.613077812010001
 30
0.0
  0
VERTEX
  5
D6
  8
MOVE
 10
34.18711616631722
 20
6.204327812010003
 30
0.0
  0
VERTEX
  5
D7
  8
MOVE
 10
34.18211555732171
 20
6.795577812009999
 30
0.0
  0
VERTEX
  5
D8
  8
MOVE
 10
34.1761886142047
 20
7.386827812010001
 30
0.0
  0
VERTEX
  5
D9
  8
MOVE
 10
34.16933011056622
 20
7.978077812010003
 30
0.0
  0
VERTEX
  5
DA
  8
MOVE
 10
34.16153475395152
 20
8.569327812009998
 30
0.0
  0
VERTEX
  5
DB
  8
MOVE
 10
34.15279718460532
 20
9.16057781201
 30
0.0
  0
VERTEX
  5
DC
  8
MOVE
 10
34.14311197419597
 20
9.751827812010003
 30
0.0
  0
VERTEX
  5
DD
  8
MOVE
 10
34.13247362450609
 20
10.34307781201
 30
0.0
  0
VERTEX
  5
DE
  8
MOVE
 10
34.12087656609133
 20
10.93432781201
 30
0.0
  0
VERTEX
  5
DF
  8
MOVE
 10
34.10831515690384
 20
11.52557781201
 30
0.0
  0
VERTEX
  5
E0
  8
MOVE
 10
34.09478368088094
 20
12.11682781201
 30
0.0
  0
VERTEX
  5
E1
  8
MOVE
 10
34.08027634649693
 20
12.70807781201
 30
0.0
  0
VERTEX
  5
E2
  8
MOVE
 10
34.06478728527758
 20
13.29932781201
 30
0.0
  0
VERTEX
  5
E3
  8
MOVE
 10
34.04831055027527
 20
13.89057781201
 30
0.0
  0
VERTEX
  5
E4
  8
MOVE
 10
34.03084011450447
 20
14.48182781201
 30
0.0
  0
VERTEX
  5
E5
  8
MOVE
 10
34.01236986933534
 20
15.07307781201
 30
0.0
  0
VERTEX
  5
E6
  8
MOVE
 10
33.99289362284457
 20
15.66432781201
 30
0.0
  0
VERTEX
  5
E7
  8
MOVE
 10
33.97240509812182
 20
16.25557781201
 30
0.0
  0
VERTEX
  5
E8
  8
MOVE
 10
33.95089793153046
 20
16.84682781201
 30
0.0
  0
VERTEX
  5
E9
  8
MOVE
 10
33.92836567092118
 20
17.43807781201
 30
0.0
  0
VERTEX
  5
EA
  8
MOVE
 10
33.90480177379619
 20
18.02932781201
 30
0.0
  0
VERTEX
  5
EB
  8
MOVE
 10
33.88019960542319
 20
18.62057781201
 30
0.0
  0
VERTEX
  5
EC
  8
MOVE
 10
33.85455243689679
 20
19.21182781201
 30
0.0
  0
VERTEX
  5
ED
  8
MOVE
 10
33.82785344314575
 20
19.80307781201
 30
0.0
  0
VERTEX
  5
EE
  8
MOVE
 10
33.80009570088426
 20
20.39432781201
 30
0.0
  0
VERTEX
  5
EF
  8
MOVE
 10
33.77127218650514
 20
20.98557781201
 30
0.0
  0
VERTEX
  5
F0
  8
MOVE
 10
33.74137577391256
 20
21.57682781201
 30
0.0
  0
VERTEX
  5
F1
  8
MOVE
 10
33.71039923229334
 20
22.16807781201
 30
0.0
  0
VERTEX
  5
F2
  8
MOVE
 10
33.67833522382313
 20
22.75932781201
 30
0.0
  0
VERTEX
  5
F3
  8
MOVE
 10
33.64517630130576
 20
23.35057781201
 30
0.0
  0
VERTEX
  5
F4
  8
MOVE
 10
33.61091490574382
 20
23.94182781201
 30
0.0
  0
VERTEX
  5
F5
  8
MOVE
 10
33.57554336383715
 20
24.53307781201
 30
0.0
  0
VERTEX
  5
F6
  8
MOVE
 10
33.53905388540693
 20
25.12432781201
 30
0.0
  0
VERTEX
  5
F7
  8
MOVE
 10
33.50143856074256
 20
25.71557781201
 30
0.0
  0
VERTEX
  5
F8
  8
MOVE
 10
33.46268935786884
 20
26.30682781201
 30
0.0
  0
VERTEX
  5
F9
  8
MOVE
 10
33.42279811972946
 20
26.89807781201
 30
0.0
  0
VERTEX
  5
FA
  8
MOVE
 10
33.38175656128483
 20
27.48932781201
 30
0.0
  0
VERTEX
  5
FB
  8
MOVE
 10
33.33955626652004
 20
28.08057781201
 30
0.0
  0
VERTEX
  5
FC
  8
MOVE
 10
33.29618868535976
 20
28.67182781201
 30
0.0
  0
VERTEX
  5
FD
  8
MOVE
 10
33.25164513048681
 20
29.26307781201
 30
0.0
  0
VERTEX
  5
FE
  8
MOVE
 10
33.20591677406027
 20
29.85432781201
 30
0.0
  0
VERTEX
  5
FF
  8
MOVE
 10
33.15899464432906
 20
30.44557781201
 30
0.0
  0
VERTEX
  5
100
  8
MOVE
 10
33.11086962213753
 20
31.03682781201
 30
0.0
  0
VERTEX
  5
101
  8
MOVE
 10
33.06153243731753
 20
31.62807781201
 30
0.0
  0
VERTEX
  5
102
  8
MOVE
 10
33.01097366496369
 20
32.21932781201001
 30
0.0
  0
VERTEX
  5
103
  8
MOVE
 10
32.95918372158631
 20
32.81057781201001
 30
0.0
  0
VERTEX
  5
104
  8
MOVE
 10
32.90615286113736
 20
33.40182781201
 30
0.0
  0
VERTEX
  5
105
  8
MOVE
 10
32.85187117090358
 20
33.99307781201
 30
0.0
  0
VERTEX
  5
106
  8
MOVE
 10
32.79632856726219
 20
34.58432781201
 30
0.0
  0
VERTEX
  5
107
  8
MOVE
 10
32.73951479129299
 20
35.17557781201
 30
0.0
 42
-0.3738846794847993
  0
VERTEX
  5
108
  8
MOVE
 10
35.10221230487393
 20
38.48658271367734
 30
0.0
 42
-0.1182582864477432
  0
VERTEX
  5
109
  8
MOVE
 10
41.16860874367682
 20
38.48658271367736
 30
0.0
 42
-0.373884679484805
  0
VERTEX
  5
10A
  8
MOVE
 10
43.53130625725781
 20
35.17557781201
 30
0.0
  0
VERTEX
  5
10B
  8
MOVE
 10
43.47449248128861
 20
34.58432781201
 30
0.0
  0
VERTEX
  5
10C
  8
MOVE
 10
43.41894987764721
 20
33.99307781201
 30
0.0
  0
VERTEX
  5
10D
  8
MOVE
 10
43.36466818741341
 20
33.40182781201
 30
0.0
  0
VERTEX
  5
10E
  8
MOVE
 10
43.31163732696451
 20
32.81057781201001
 30
0.0
  0
VERTEX
  5
10F
  8
MOVE
 10
43.25984738358711
 20
32.21932781201001
 30
0.0
  0
VERTEX
  5
110
  8
MOVE
 10
43.2092886112333
 20
31.62807781201
 30
0.0
  0
VERTEX
  5
111
  8
MOVE
 10
43.15995142641331
 20
31.03682781201
 30
0.0
  0
VERTEX
  5
112
  8
MOVE
 10
43.11182640422171
 20
30.44557781201
 30
0.0
  0
VERTEX
  5
113
  8
MOVE
 10
43.06490427449051
 20
29.85432781201
 30
0.0
  0
VERTEX
  5
114
  8
MOVE
 10
43.01917591806401
 20
29.26307781201
 30
0.0
  0
VERTEX
  5
115
  8
MOVE
 10
42.97463236319111
 20
28.67182781201
 30
0.0
  0
VERTEX
  5
116
  8
MOVE
 10
42.93126478203081
 20
28.08057781201
 30
0.0
  0
VERTEX
  5
117
  8
MOVE
 10
42.88906448726601
 20
27.48932781201
 30
0.0
  0
VERTEX
  5
118
  8
MOVE
 10
42.84802292882131
 20
26.89807781201
 30
0.0
  0
VERTEX
  5
119
  8
MOVE
 10
42.80813169068201
 20
26.30682781201
 30
0.0
  0
VERTEX
  5
11A
  8
MOVE
 10
42.76938248780831
 20
25.71557781201
 30
0.0
  0
VERTEX
  5
11B
  8
MOVE
 10
42.73176716314391
 20
25.12432781201
 30
0.0
  0
VERTEX
  5
11C
  8
MOVE
 10
42.69527768471371
 20
24.53307781201
 30
0.0
  0
VERTEX
  5
11D
  8
MOVE
 10
42.65990614280701
 20
23.94182781201
 30
0.0
  0
VERTEX
  5
11E
  8
MOVE
 10
42.625644747245
 20
23.35057781201
 30
0.0
  0
VERTEX
  5
11F
  8
MOVE
 10
42.59248582472771
 20
22.75932781201
 30
0.0
  0
VERTEX
  5
120
  8
MOVE
 10
42.56042181625751
 20
22.16807781201
 30
0.0
  0
VERTEX
  5
121
  8
MOVE
 10
42.52944527463831
 20
21.57682781201
 30
0.0
  0
VERTEX
  5
122
  8
MOVE
 10
42.49954886204571
 20
20.98557781201
 30
0.0
  0
VERTEX
  5
123
  8
MOVE
 10
42.47072534766661
 20
20.39432781201
 30
0.0
  0
VERTEX
  5
124
  8
MOVE
 10
42.44296760540511
 20
19.80307781201
 30
0.0
  0
VERTEX
  5
125
  8
MOVE
 10
42.41626861165401
 20
19.21182781201
 30
0.0
  0
VERTEX
  5
126
  8
MOVE
 10
42.39062144312761
 20
18.62057781201
 30
0.0
  0
VERTEX
  5
127
  8
MOVE
 10
42.36601927475461
 20
18.02932781201
 30
0.0
  0
VERTEX
  5
128
  8
MOVE
 10
42.34245537762961
 20
17.43807781201
 30
0.0
  0
VERTEX
  5
129
  8
MOVE
 10
42.31992311702031
 20
16.84682781201
 30
0.0
  0
VERTEX
  5
12A
  8
MOVE
 10
42.29841595042901
 20
16.25557781201
 30
0.0
  0
VERTEX
  5
12B
  8
MOVE
 10
42.27792742570621
 20
15.66432781201
 30
0.0
  0
VERTEX
  5
12C
  8
MOVE
 10
42.25845117921551
 20
15.07307781201
 30
0.0
  0
VERTEX
  5
12D
  8
MOVE
 10
42.23998093404631
 20
14.48182781201
 30
0.0
  0
VERTEX
  5
12E
  8
MOVE
 10
42.22251049827551
 20
13.89057781201
 30
0.0
  0
VERTEX
  5
12F
  8
MOVE
 10
42.20603376327321
 20
13.29932781201
 30
0.0
  0
VERTEX
  5
130
  8
MOVE
 10
42.19054470205391
 20
12.70807781201
 30
0.0
  0
VERTEX
  5
131
  8
MOVE
 10
42.17603736766991
 20
12.11682781201
 30
0.0
  0
VERTEX
  5
132
  8
MOVE
 10
42.16250589164701
 20
11.52557781201
 30
0.0
  0
VERTEX
  5
133
  8
MOVE
 10
42.14994448245951
 20
10.93432781201
 30
0.0
  0
VERTEX
  5
134
  8
MOVE
 10
42.13834742404471
 20
10.34307781201
 30
0.0
  0
VERTEX
  5
135
  8
MOVE
 10
42.12770907435481
 20
9.751827812010003
 30
0.0
  0
VERTEX
  5
136
  8
MOVE
 10
42.11802386394551
 20
9.16057781201
 30
0.0
  0
VERTEX
  5
137
  8
MOVE
 10
42.10928629459931
 20
8.569327812009998
 30
0.0
  0
VERTEX
  5
138
  8
MOVE
 10
42.10149093798461
 20
7.978077812010003
 30
0.0
  0
VERTEX
  5
139
  8
MOVE
 10
42.09463243434611
 20
7.386827812010001
 30
0.0
  0
VERTEX
  5
13A
  8
MOVE
 10
42.08870549122911
 20
6.795577812009999
 30
0.0
  0
VERTEX
  5
13B
  8
MOVE
 10
42.08370488223361
 20
6.204327812010003
 30
0.0
  0
VERTEX
  5
13C
  8
MOVE
 10
42.07962544579991
 20
5.613077812010001
 30
0.0
  0
VERTEX
  5
13D
  8
MOVE
 10
42.07646208402281
 20
5.021827812009999
 30
0.0
  0
VERTEX
  5
13E
  8
MOVE
 10
42.07420976149441
 20
4.430577812010004
 30
0.0
  0
VERTEX
  5
13F
  8
MOVE
 10
42.07286350417531
 20
3.839327812010001
 30
0.0
  0
VERTEX
  5
140
  8
MOVE
 10
42.07241839829111
 20
3.248077812009999
 30
0.0
  0
VERTEX
  5
141
  8
MOVE
 10
42.07286958925701
 20
2.656827812010004
 30
0.0
  0
VERTEX
  5
142
  8
MOVE
 10
42.07421228062521
 20
2.065577812010002
 30
0.0
  0
VERTEX
  5
143
  8
MOVE
 10
42.07644173305981
 20
1.474327812009999
 30
0.0
  0
VERTEX
  5
144
  8
MOVE
 10
42.07955326333251
 20
0.8830778120100042
 30
0.0
  0
VERTEX
  5
145
  8
MOVE
 10
42.08354224334411
 20
0.291827812010002
 30
0.0
  0
VERTEX
  5
146
  8
MOVE
 10
42.08840409916671
 20
-0.2994221879900998
 30
0.0
  0
VERTEX
  5
147
  8
MOVE
 10
42.09413431010841
 20
-0.8906721879901021
 30
0.0
  0
VERTEX
  5
148
  8
MOVE
 10
42.10072840779991
 20
-1.481922187990097
 30
0.0
  0
VERTEX
  5
149
  8
MOVE
 10
42.10818197530031
 20
-2.0731721879901
 30
0.0
  0
VERTEX
  5
14A
  8
MOVE
 10
42.11649064622451
 20
-2.664422187990102
 30
0.0
  0
VERTEX
  5
14B
  8
MOVE
 10
42.12565010388871
 20
-3.255672187990097
 30
0.0
  0
VERTEX
  5
14C
  8
MOVE
 10
42.13565608047611
 20
-3.846922187990099
 30
0.0
  0
VERTEX
  5
14D
  8
MOVE
 10
42.14650435622081
 20
-4.438172187990101
 30
0.0
  0
VERTEX
  5
14E
  8
MOVE
 10
42.15819075860851
 20
-5.029422187990097
 30
0.0
  0
VERTEX
  5
14F
  8
MOVE
 10
42.17071116159621
 20
-5.620672187990099
 30
0.0
  0
VERTEX
  5
150
  8
MOVE
 10
42.18406148484851
 20
-6.211922187990101
 30
0.0
  0
VERTEX
  5
151
  8
MOVE
 10
42.19823769298961
 20
-6.803172187990096
 30
0.0
  0
VERTEX
  5
152
  8
MOVE
 10
42.21323579487251
 20
-7.394422187990099
 30
0.0
  0
VERTEX
  5
153
  8
MOVE
 10
42.22905184286271
 20
-7.985672187990101
 30
0.0
  0
VERTEX
  5
154
  8
MOVE
 10
42.24568193213861
 20
-8.576922187989997
 30
0.0
  0
VERTEX
  5
155
  8
MOVE
 10
42.26312220000531
 20
-9.168172187989999
 30
0.0
  0
VERTEX
  5
156
  8
MOVE
 10
42.28137373654671
 20
-9.759422187990001
 30
0.0
  0
VERTEX
  5
157
  8
MOVE
 10
42.30044261129391
 20
-10.35067218799
 30
0.0
  0
VERTEX
  5
158
  8
MOVE
 10
42.32033498922812
 20
-10.94192218799
 30
0.0
  0
VERTEX
  5
159
  8
MOVE
 10
42.34105713303841
 20
-11.53317218799
 30
0.0
  0
VERTEX
  5
15A
  8
MOVE
 10
42.36261540545271
 20
-12.12442218799
 30
0.0
  0
VERTEX
  5
15B
  8
MOVE
 10
42.38501627164251
 20
-12.71567218799
 30
0.0
  0
VERTEX
  5
15C
  8
MOVE
 10
42.40826630170381
 20
-13.30692218799
 30
0.0
  0
VERTEX
  5
15D
  8
MOVE
 10
42.43237217322051
 20
-13.89817218799
 30
0.0
  0
VERTEX
  5
15E
  8
MOVE
 10
42.45734067390971
 20
-14.48942218799001
 30
0.0
  0
VERTEX
  5
15F
  8
MOVE
 10
42.48317870435431
 20
-15.08067218798999
 30
0.0
  0
VERTEX
  5
160
  8
MOVE
 10
42.50989328082731
 20
-15.67192218799
 30
0.0
  0
VERTEX
  5
161
  8
MOVE
 10
42.53749153820951
 20
-16.26317218799
 30
0.0
  0
VERTEX
  5
162
  8
MOVE
 10
42.56598073300631
 20
-16.85442218799
 30
0.0
  0
VERTEX
  5
163
  8
MOVE
 10
42.59536824646621
 20
-17.44567218799
 30
0.0
  0
VERTEX
  5
164
  8
MOVE
 10
42.62566158780681
 20
-18.03692218799
 30
0.0
  0
VERTEX
  5
165
  8
MOVE
 10
42.65686839755281
 20
-18.62817218798999
 30
0.0
  0
VERTEX
  5
166
  8
MOVE
 10
42.68899645098961
 20
-19.21942218798999
 30
0.0
  0
VERTEX
  5
167
  8
MOVE
 10
42.72205366173841
 20
-19.81067218799
 30
0.0
  0
VERTEX
  5
168
  8
MOVE
 10
42.75604808545881
 20
-20.40192218799
 30
0.0
  0
VERTEX
  5
169
  8
MOVE
 10
42.79098792368341
 20
-20.99317218799
 30
0.0
  0
VERTEX
  5
16A
  8
MOVE
 10
42.82688152779091
 20
-21.58442218799
 30
0.0
  0
VERTEX
  5
16B
  8
MOVE
 10
42.86373740312341
 20
-22.17567218798999
 30
0.0
  0
VERTEX
  5
16C
  8
MOVE
 10
42.90156421325651
 20
-22.76692218798999
 30
0.0
  0
VERTEX
  5
16D
  8
MOVE
 10
42.94037078442571
 20
-23.35817218799
 30
0.0
  0
VERTEX
  5
16E
  8
MOVE
 10
42.98016611012021
 20
-23.94942218799
 30
0.0
  0
VERTEX
  5
16F
  8
MOVE
 10
42.9825891174364
 20
-23.98924361929704
 30
0.0
  0
VERTEX
  5
170
  8
MOVE
 10
42.98449831466059
 20
-24.02906458257222
 30
0.0
  0
VERTEX
  5
171
  8
MOVE
 10
42.98589448199611
 20
-24.06888023865359
 30
0.0
  0
VERTEX
  5
172
  8
MOVE
 10
42.98677839964625
 20
-24.1086857483792
 30
0.0
  0
VERTEX
  5
173
  8
MOVE
 10
42.98715084781436
 20
-24.14847627258708
 30
0.0
  0
VERTEX
  5
174
  8
MOVE
 10
42.98701260670374
 20
-24.18824697211528
 30
0.0
  0
VERTEX
  5
175
  8
MOVE
 10
42.98636445651771
 20
-24.22799300780183
 30
0.0
  0
VERTEX
  5
176
  8
MOVE
 10
42.9852071774596
 20
-24.26770954048478
 30
0.0
  0
VERTEX
  5
177
  8
MOVE
 10
42.98354154973272
 20
-24.30739173100216
 30
0.0
  0
VERTEX
  5
178
  8
MOVE
 10
42.98136835354039
 20
-24.34703474019203
 30
0.0
  0
VERTEX
  5
179
  8
MOVE
 10
42.97868836908593
 20
-24.38663372889242
 30
0.0
  0
VERTEX
  5
17A
  8
MOVE
 10
42.97550237657266
 20
-24.42618385794137
 30
0.0
  0
VERTEX
  5
17B
  8
MOVE
 10
42.9718111562039
 20
-24.46568028817692
 30
0.0
  0
VERTEX
  5
17C
  8
MOVE
 10
42.96761548818296
 20
-24.50511818043712
 30
0.0
  0
VERTEX
  5
17D
  8
MOVE
 10
42.96291615271317
 20
-24.54449269556001
 30
0.0
  0
VERTEX
  5
17E
  8
MOVE
 10
42.95771392999784
 20
-24.58379899438362
 30
0.0
  0
VERTEX
  5
17F
  8
MOVE
 10
42.95200960024029
 20
-24.623032237746
 30
0.0
  0
VERTEX
  5
180
  8
MOVE
 10
42.94580394364385
 20
-24.66218758648519
 30
0.0
  0
VERTEX
  5
181
  8
MOVE
 10
42.93909774041183
 20
-24.70126020143923
 30
0.0
  0
VERTEX
  5
182
  8
MOVE
 10
42.93189177074755
 20
-24.74024524344617
 30
0.0
  0
VERTEX
  5
183
  8
MOVE
 10
42.92418681485432
 20
-24.77913787334404
 30
0.0
  0
VERTEX
  5
184
  8
MOVE
 10
42.91598365293547
 20
-24.81793325197089
 30
0.0
  0
VERTEX
  5
185
  8
MOVE
 10
42.90728306519432
 20
-24.85662654016475
 30
0.0
  0
VERTEX
  5
186
  8
MOVE
 10
42.89808583183418
 20
-24.89521289876366
 30
0.0
  0
VERTEX
  5
187
  8
MOVE
 10
42.88839273305837
 20
-24.93368748860568
 30
0.0
  0
VERTEX
  5
188
  8
MOVE
 10
42.87820454907022
 20
-24.97204547052884
 30
0.0
  0
VERTEX
  5
189
  8
MOVE
 10
42.86752206007304
 20
-25.01028200537118
 30
0.0
  0
VERTEX
  5
18A
  8
MOVE
 10
42.85634604627015
 20
-25.04839225397075
 30
0.0
  0
VERTEX
  5
18B
  8
MOVE
 10
42.84467728786487
 20
-25.08637137716558
 30
0.0
  0
VERTEX
  5
18C
  8
MOVE
 10
42.83251656506052
 20
-25.12421453579371
 30
0.0
  0
VERTEX
  5
18D
  8
MOVE
 10
42.81986465806041
 20
-25.16191689069319
 30
0.0
  0
VERTEX
  5
18E
  8
MOVE
 10
42.80672234706787
 20
-25.19947360270206
 30
0.0
  0
SEQEND
  5
196
  8
MOVE
  0
POLYLINE
  5
72
  8
MOVE
 66
     1
 10
0.0
 20
0.0
 30
0.0
 70
     1
  0
VERTEX
  5
18F
  8
MOVE
 10
31.0104105242754
 20
-27.125
 30
0.0
  0
VERTEX
  5
190
  8
MOVE
 10
45.2604105242754
 20
-27.125
 30
0.0
  0
VERTEX
  5
191
  8
MOVE
 10
45.2604105242754
 20
40.375
 30
0.0
  0
VERTEX
  5
192
  8
MOVE
 10
31.0104105242754
 20
40.375
 30
0.0
  0
SEQEND
  5
197
  8
MOVE
  0
ENDSEC
  0
EOF
