  0
SECTION
  2
HEADER
  9
$ACADVER
  1
AC1003
  9
$EXTMIN
 10
0.7199784981202
 20
4.16399732665874
  9
$EXTMAX
 10
4.5559754943606
 20
0.371991979976218
  9
$INSBASE
 10
2.6379769962404
 20
2.26799465331748
999
Makes a nice toy
  0
ENDSEC
  0
SECTION
  2
TABLES
  0
TABLE
  2
LAYER
 70
    10
  0
LAYER
  2
0
 70
     0
 62
     7
  6
CONTINUOUS
  0
LAYER
  2
1
 70
     0
 62
     7
  6
CONTINUOUS
  0
LAYER
  2
2
 70
     0
 62
     7
  6
CONTINUOUS
  0
LAYER
  2
3
 70
     0
 62
     7
  6
CONTINUOUS
  0
LAYER
  2
4
 70
     0
 62
     7
  6
CONTINUOUS
  0
LAYER
  2
5
 70
     0
 62
     7
  6
CONTINUOUS
  0
LAYER
  2
6
 70
     0
 62
     7
  6
CONTINUOUS
  0
LAYER
  2
7
 70
     0
 62
     7
  6
CONTINUOUS
  0
LAYER
  2
8
 70
     0
 62
     7
  6
CONTINUOUS
  0
LAYER
  2
9
 70
     0
 62
     7
  6
CONTINUOUS
  0
LAYER
  2
10
 70
     0
 62
     7
  6
CONTINUOUS
  0
LAYER
  2
11
 70
     0
 62
     7
  6
CONTINUOUS
  0
LAYER
  2
12
 70
     0
 62
     7
  6
CONTINUOUS
  0
ENDTAB
  0
ENDSEC
  0
SECTION
  2
ENTITIES
  0
ARC
  8
3
  6
CONTINUOUS
 62
3
 10
2.08408977784684
 20
3.87575782860417
 30
0.0
 40
0.207229498054575
 50
37.5433796373609
 51
90.0000000000014
  0
LINE
  8
3
  6
CONTINUOUS
 62
3
 10
2.4989784981202
 20
3.67598732665874
 30
0.0
 11
2.24840043233305
 21
4.00203559262564
 31
0.0
  0
LINE
  8
3
  6
CONTINUOUS
 62
3
 10
2.5749784981202
 20
3.67598732665874
 30
0.0
 11
2.4989784981202
 21
3.67598732665874
 31
0.0
  0
LINE
  8
3
  6
CONTINUOUS
 62
3
 10
2.7024834981202
 20
3.67598732665874
 30
0.0
 11
2.5749784981202
 21
3.67598732665874
 31
0.0
  0
ARC
  8
3
  6
CONTINUOUS
 62
3
 10
2.71174461384148
 20
3.48708155353825
 30
0.0
 40
0.189132650229022
 50
56.261581543417
 51
92.8066815434172
  0
ARC
  8
3
  6
CONTINUOUS
 62
3
 10
2.76743461977752
 20
3.57201554702777
 30
0.0
 40
0.0875769693571702
 50
5.2315152202507
 51
55.6978051183173
  0
LINE
  8
3
  6
CONTINUOUS
 62
3
 10
2.85565646867835
 20
3.56897544121983
 30
0.0
 11
2.85464677816322
 21
3.58000084548772
 31
0.0
  0
ARC
  8
3
  6
CONTINUOUS
 62
3
 10
2.76742728983024
 20
3.56089554112044
 30
0.0
 40
0.0885983791376982
 50
277.166519320882
 51
5.23246927564127
  0
LINE
  8
3
  6
CONTINUOUS
 62
3
 10
2.6514784981202
 20
3.47298732665874
 30
0.0
 11
2.77848024522988
 21
3.47298931288398
 31
0.0
  0
LINE
  8
3
  6
CONTINUOUS
 62
3
 10
2.8799784981202
 20
3.11698732665874
 30
0.0
 11
2.6514784981202
 21
3.47298732665874
 31
0.0
  0
LINE
  8
3
  6
CONTINUOUS
 62
3
 10
3.17171021150628
 20
3.11698732665874
 30
0.0
 11
2.8799784981202
 21
3.11698732665874
 31
0.0
  0
ARC
  8
3
  6
CONTINUOUS
 62
3
 10
3.17171021150628
 20
3.01543210823259
 30
0.0
 40
0.101555218426149
 50
359.99999999999
 51
89.9999999999983
  0
ARC
  8
3
  6
CONTINUOUS
 62
3
 10
3.17171021150629
 20
3.01543210823258
 30
0.0
 40
0.101555218426143
 50
269.999999999995
 51
359.999999999995
  0
LINE
  8
3
  6
CONTINUOUS
 62
3
 10
3.05133604075633
 20
2.91387688980644
 30
0.0
 11
3.17171021150628
 21
2.91387688980644
 31
0.0
  0
LINE
  8
3
  6
CONTINUOUS
 62
3
 10
3.4139784981202
 20
2.43098732665874
 30
0.0
 11
3.05133604075633
 21
2.91387688980644
 31
0.0
  0
LINE
  8
3
  6
CONTINUOUS
 62
3
 10
3.5664784981202
 20
2.43098732665874
 30
0.0
 11
3.4139784981202
 21
2.43098732665874
 31
0.0
  0
LINE
  8
3
  6
CONTINUOUS
 62
3
 10
3.94747849812019
 20
2.43098732665873
 30
0.0
 11
3.5664784981202
 21
2.43098732665874
 31
0.0
  0
ARC
  8
3
  6
CONTINUOUS
 62
3
 10
3.96247983825471
 20
0.779804893800569
 30
0.0
 40
1.6512505766192
 50
82.5312099017441
 51
90.5205299017439
  0
ARC
  8
3
  6
CONTINUOUS
 62
3
 10
4.09940773323741
 20
1.78020983601098
 30
0.0
 40
0.641560096435724
 50
68.4339350477671
 51
83.042715047767
  0
ARC
  8
3
  6
CONTINUOUS
 62
3
 10
4.0994299821128
 20
2.67476648278669
 30
0.0
 40
0.64155300642454
 50
276.955398656646
 51
291.564178656648
  0
ARC
  8
3
  6
CONTINUOUS
 62
3
 10
3.96249752830811
 20
3.67517626384481
 30
0.0
 40
1.65124868845332
 50
269.478874466251
 51
277.46819446625
  0
LINE
  8
3
  6
CONTINUOUS
 62
3
 10
3.5664784981202
 20
2.02399197997622
 30
0.0
 11
3.94747904008509
 21
2.02399587511368
 31
0.0
  0
LINE
  8
3
  6
CONTINUOUS
 62
3
 10
3.4139784981202
 20
2.02399197997622
 30
0.0
 11
3.5664784981202
 21
2.02399197997622
 31
0.0
  0
LINE
  8
3
  6
CONTINUOUS
 62
3
 10
3.05133604075633
 20
1.54110241682852
 30
0.0
 11
3.4139784981202
 21
2.02399197997622
 31
0.0
  0
LINE
  8
3
  6
CONTINUOUS
 62
3
 10
3.17171021150628
 20
1.54110241682852
 30
0.0
 11
3.05133604075633
 21
1.54110241682852
 31
0.0
  0
ARC
  8
3
  6
CONTINUOUS
 62
3
 10
3.17171021150628
 20
1.43954719840236
 30
0.0
 40
0.101555218426164
 50
359.999999999997
 51
89.9999999999988
  0
ARC
  8
3
  6
CONTINUOUS
 62
3
 10
3.1717102115063
 20
1.43954719840237
 30
0.0
 40
0.101555218426147
 50
269.999999999991
 51
359.999999999992
  0
LINE
  8
3
  6
CONTINUOUS
 62
3
 10
2.8799784981202
 20
1.33799197997622
 30
0.0
 11
3.17171021150628
 21
1.33799197997622
 31
0.0
  0
LINE
  8
3
  6
CONTINUOUS
 62
3
 10
2.6514784981202
 20
0.981991979976218
 30
0.0
 11
2.8799784981202
 21
1.33799197997622
 31
0.0
  0
LINE
  8
3
  6
CONTINUOUS
 62
3
 10
2.77847849812021
 20
0.981991979976226
 30
0.0
 11
2.6514784981202
 21
0.981991979976218
 31
0.0
  0
ARC
  8
3
  6
CONTINUOUS
 62
3
 10
2.76742659791086
 20
0.894082070030126
 30
0.0
 40
0.0886019004591269
 50
354.737279790878
 51
82.8344547207285
  0
LINE
  8
3
  6
CONTINUOUS
 62
3
 10
2.85463942539141
 20
0.874929772538495
 30
0.0
 11
2.85565500492669
 21
0.885955264974108
 31
0.0
  0
ARC
  8
3
  6
CONTINUOUS
 62
3
 10
2.76743349812019
 20
0.882962479976242
 30
0.0
 40
0.0875751000000204
 50
304.303369999977
 51
354.737225070135
  0
ARC
  8
3
  6
CONTINUOUS
 62
3
 10
2.71174621889839
 20
0.967896571399071
 30
0.0
 40
0.189129330288078
 50
267.19315358731
 51
303.73825358731
  0
LINE
  8
3
  6
CONTINUOUS
 62
3
 10
2.5749784981202
 20
0.778991979976218
 30
0.0
 11
2.70248472217317
 21
0.778994140886318
 31
0.0
  0
LINE
  8
3
  6
CONTINUOUS
 62
3
 10
2.4989784981202
 20
0.778991979976218
 30
0.0
 11
2.5749784981202
 21
0.778991979976218
 31
0.0
  0
LINE
  8
3
  6
CONTINUOUS
 62
3
 10
2.24840043233304
 20
0.452943714009305
 30
0.0
 11
2.4989784981202
 21
0.778991979976218
 31
0.0
  0
ARC
  8
3
  6
CONTINUOUS
 62
3
 10
2.08408977784685
 20
0.579221478030786
 30
0.0
 40
0.207229498054561
 50
269.999999999994
 51
322.456620362632
  0
ARC
  8
3
  6
CONTINUOUS
 62
3
 10
1.17255877015628
 20
0.82627231791013
 30
0.0
 40
0.848308818797272
 50
327.621296502853
 51
334.261636502855
  0
LINE
  8
3
  6
CONTINUOUS
 62
3
 10
2.31274864942085
 20
1.31093549941009
 30
0.0
 11
1.93670386338797
 21
0.457883761438623
 31
0.0
  0
ARC
  8
3
  6
CONTINUOUS
 62
3
 10
1.63296813565173
 20
1.90664449943792
 30
0.0
 40
0.840575511847686
 50
347.891922901829
 51
359.342052001829
  0
ARC
  8
3
  6
CONTINUOUS
 62
3
 10
2.30639028115
 20
1.89705777392074
 30
0.0
 40
0.167097957562879
 50
359.977474835241
 51
63.3193938752497
  0
ARC
  8
3
  6
CONTINUOUS
 62
3
 10
2.20055756434065
 20
1.71936157835778
 30
0.0
 40
0.373686538909495
 50
61.0533421083262
 51
79.3019421083261
  0
ARC
  8
3
  6
CONTINUOUS
 62
3
 10
2.12565267173067
 20
1.34876983370987
 30
0.0
 40
0.751757285126409
 50
78.9354326553429
 51
90.5850326553429
  0
LINE
  8
3
  6
CONTINUOUS
 62
3
 10
0.9739784981202
 20
1.59199197997622
 30
0.0
 11
1.3809784981202
 21
2.10049197997622
 31
0.0
  0
LINE
  8
3
  6
CONTINUOUS
 62
3
 10
0.7199784981202
 20
1.54148197997622
 30
0.0
 11
0.9739784981202
 21
1.59199197997622
 31
0.0
  0
LINE
  8
3
  6
CONTINUOUS
 62
3
 10
0.897978498120199
 20
2.17649197997622
 30
0.0
 11
0.7199784981202
 21
1.54148197997622
 31
0.0
  0
LINE
  8
3
  6
CONTINUOUS
 62
3
 10
0.7199784981202
 20
2.22748965331748
 30
0.0
 11
0.897978498120199
 21
2.17649197997622
 31
0.0
  0
LINE
  8
3
  6
CONTINUOUS
 62
3
 10
0.897978498120199
 20
2.27848732665874
 30
0.0
 11
0.7199784981202
 21
2.22748965331748
 31
0.0
  0
LINE
  8
3
  6
CONTINUOUS
 62
3
 10
0.7199784981202
 20
2.91349732665874
 30
0.0
 11
0.897978498120199
 21
2.27848732665874
 31
0.0
  0
LINE
  8
3
  6
CONTINUOUS
 62
3
 10
0.9739784981202
 20
2.86298732665874
 30
0.0
 11
0.7199784981202
 21
2.91349732665874
 31
0.0
  0
LINE
  8
3
  6
CONTINUOUS
 62
3
 10
1.3809784981202
 20
2.35448732665874
 30
0.0
 11
0.9739784981202
 21
2.86298732665874
 31
0.0
  0
ARC
  8
3
  6
CONTINUOUS
 62
3
 10
2.12561999738733
 20
3.10618699043777
 30
0.0
 40
0.751738503095698
 50
269.417572472683
 51
281.067172472683
  0
ARC
  8
3
  6
CONTINUOUS
 62
3
 10
2.20057044762226
 20
2.7356270944008
 30
0.0
 40
0.37369037625437
 50
280.69550984107
 51
298.944109841071
  0
ARC
  8
3
  6
CONTINUOUS
 62
3
 10
2.30638694778453
 20
2.55791614889605
 30
0.0
 40
0.167096550827249
 50
296.682203623241
 51
0.0241226632489301
  0
LINE
  8
3
  6
CONTINUOUS
 62
3
 10
1.93670386338799
 20
3.99709554519633
 30
0.0
 11
2.31274864942086
 21
3.14404380722488
 31
0.0
  0
ARC
  8
3
  6
CONTINUOUS
 62
3
 10
1.17257099812016
 20
3.62869732665869
 30
0.0
 40
0.84830200000007
 50
25.7393100000007
 51
32.3796500000007
  0
LINE
  8
9
  6
CONTINUOUS
 62
9
 10
1.8439884981202
 20
4.16399732665874
 30
0.0
 11
1.88897746286262
 21
4.08298584784246
 31
0.0
  0
LINE
  8
0
  6
CONTINUOUS
 62
0
 10
4.4559754943606
 20
4.16399732665874
 30
0.0
 11
1.8439884981202
 21
4.16399732665874
 31
0.0
  0
LINE
  8
0
  6
CONTINUOUS
 62
0
 10
4.5559754943606
 20
4.16399732665874
 30
0.0
 11
4.4559754943606
 21
4.16399732665874
 31
0.0
  0
ARC
  8
3
  6
CONTINUOUS
 62
3
 10
4.28023736965538
 20
2.22748757458623
 30
0.0
 40
0.159170573971944
 50
290.211405348845
 51
69.7885946511546
  0
LINE
  8
9
  6
CONTINUOUS
 62
9
 10
1.73897746287724
 20
4.08298375344735
 30
0.0
 11
1.88897746286262
 21
4.08298584784246
 31
0.0
  0
LINE
  8
0
  6
CONTINUOUS
 62
0
 10
0.7199784981202
 20
4.16399732665874
 30
0.0
 11
1.73897746287724
 21
4.08298375344735
 31
0.0
  0
LINE
  8
3
  6
CONTINUOUS
 62
3
 10
1.88897746286262
 20
4.08298584784246
 30
0.0
 11
2.08408977784683
 21
4.08298732665874
 31
0.0
  0
LINE
  8
3
  6
CONTINUOUS
 62
3
 10
2.08408977784683
 20
0.371991979976225
 30
0.0
 11
1.88897849812019
 21
0.371991979976218
 31
0.0
  0
LINE
  8
3
  6
CONTINUOUS
 62
3
 10
1.3809784981202
 20
2.35448732665874
 30
0.0
 11
2.1179784981202
 21
2.35448732665874
 31
0.0
  0
LINE
  8
3
  6
CONTINUOUS
 62
3
 10
1.3809784981202
 20
2.10049197997622
 30
0.0
 11
2.1179768023697
 21
2.10048793031935
 31
0.0
  0
ARC
  8
3
  6
CONTINUOUS
 62
3
 10
0.334447892027596
 20
2.21497546074874
 30
0.0
 40
2.17507750169963
 50
335.440641145117
 51
347.125380987736
  0
ARC
  8
3
  6
CONTINUOUS
 62
3
 10
0.334447892025035
 20
2.24000384588539
 30
0.0
 40
2.17507750170231
 50
12.8746190122697
 51
24.5593588548747
  0
ARC
  8
3
  6
CONTINUOUS
 62
3
 10
1.63296214662789
 20
2.54835809412769
 30
0.0
 40
0.840576483398365
 50
0.656310386482774
 51
12.1064394864827
  0
ENDSEC
  0
EOF
