700 0 1 0           
30 Autodesk Inventor 13.0.0.23601 19 ASM 214.0.0.5130 NT 24 Sun May 18 22:09:22 2008 
1 9.9999999999999995e-007 1e-010 
body $1 -1 $-1 $2 $-1 $-1 #
string_attrib-name_attrib-gen-attrib $-1 -1 $-1 $-1 $0 keep keep_kept ignore copy @18 ATTRIB_XACIS_STYLE @16 1:115,133,145_1
 #
lump $-1 -1 $-1 $-1 $3 $0 #
shell $-1 -1 $-1 $-1 $-1 $4 $-1 $2 #
face $-1 -1 $-1 $5 $6 $3 $-1 $7 forward single #
face $-1 -1 $-1 $8 $9 $3 $-1 $10 reversed single #
loop $-1 -1 $-1 $-1 $11 $4 #
cone-surface $-1 -1 $-1 -94 -120.99999999999993 6.2500000000000071 -3.5527136788005009e-015 -1.8426867998067282e-043 1 1.4142135623730954 1.4142135623730954 4.7102773760513427e-015 1 I I 0 -1 2.0000000000000004 forward I I I I #
face $-1 -1 $-1 $12 $13 $3 $-1 $14 reversed single #
loop $-1 -1 $-1 $-1 $15 $5 #
plane-surface $-1 -1 $-1 -108 -128.4322408730699 5 0 0 -1 -10 0 0 forward_v I I I I #
coedge $-1 -1 $-1 $16 $17 $15 $18 reversed $6 $-1 #
face $-1 -1 $-1 $19 $20 $3 $-1 $21 forward single #
loop $-1 -1 $-1 $-1 $22 $8 #
plane-surface $-1 -1 $-1 -100.00000000000001 -118.99999999999993 7.4999999999999991 -1.418404286206626e-028 1 -3.1964975098688126e-043 0 3.1964975098688127e-042 10 forward_v I I I I #
coedge $-1 -1 $-1 $23 $24 $11 $18 forward $9 $-1 #
coedge $-1 -1 $-1 $25 $11 $26 $27 forward $6 $-1 #
coedge $-1 -1 $-1 $11 $25 $22 $28 forward $6 $-1 #
edge $-1 -1 $-1 $29 -0.78539816339744828 $30 0.78539816339744828 $15 $31 forward @7 unknown #
face $-1 -1 $-1 $32 $33 $3 $-1 $34 reversed single #
loop $-1 -1 $-1 $-1 $35 $12 #
cone-surface $-1 -1 $-1 -106.00000000000001 -120.99999999999993 8.75 -0 -3.1964975098688126e-043 -1 -1.4142135623730954 1.4142135623730954 0 1 I I 0 -1 2.0000000000000004 forward I I I I #
coedge $-1 -1 $-1 $36 $37 $17 $28 reversed $13 $-1 #
coedge $-1 -1 $-1 $38 $15 $37 $39 reversed $9 $-1 #
coedge $-1 -1 $-1 $15 $40 $41 $42 forward $9 $-1 #
coedge $-1 -1 $-1 $17 $16 $43 $44 forward $6 $-1 #
coedge $-1 -1 $-1 $41 $45 $16 $27 reversed $46 $-1 #
edge $-1 -1 $-1 $29 -0.12500000000000133 $47 0.37499999999999867 $26 $48 forward @7 tangent #
edge $-1 -1 $-1 $49 -0.37499999999999933 $30 0.12500000000000067 $22 $50 forward @7 tangent #
vertex $-1 -1 $-1 $18 $51 #
vertex $-1 -1 $-1 $28 $52 #
ellipse-curve $-1 -1 $-1 -94 -120.99999999999993 5.0000000000000497 0 0 1 1.4142135623730954 1.4142135623730954 4.7102773760513427e-015 1 I I #
face $-1 -1 $-1 $53 $54 $3 $-1 $55 reversed single #
loop $-1 -1 $-1 $56 $57 $19 #
cone-surface $-1 -1 $-1 -100.16369155720099 -105.6148489360227 2.5 0 -7.1054273576009766e-015 1 0 -5.0000000000000888 -3.5527136788005729e-014 1 I I 0 1 5.0000000000000888 forward I I I I #
coedge $-1 -1 $-1 $58 $59 $38 $60 reversed $20 $-1 #
coedge $-1 -1 $-1 $61 $22 $62 $63 reversed $13 $-1 #
coedge $-1 -1 $-1 $22 $61 $23 $39 forward $13 $-1 #
coedge $-1 -1 $-1 $64 $23 $35 $60 forward $9 $-1 #
edge $-1 -1 $-1 $65 -1.4000000000000004 $30 -0.19999999999999929 $23 $66 forward @7 unknown #
coedge $-1 -1 $-1 $24 $64 $67 $68 reversed $9 $-1 #
coedge $-1 -1 $-1 $69 $26 $24 $42 reversed $46 $-1 #
edge $-1 -1 $-1 $70 0 $29 0.74322408730699863 $41 $71 forward @7 unknown #
coedge $-1 -1 $-1 $72 $62 $25 $44 reversed $73 $-1 #
edge $-1 -1 $-1 $47 -0.78539816339744828 $49 0.78539816339744828 $25 $74 forward @7 unknown #
coedge $-1 -1 $-1 $26 $69 $72 $75 reversed $46 $-1 #
loop $-1 -1 $-1 $-1 $26 $76 #
vertex $-1 -1 $-1 $75 $77 #
straight-curve $-1 -1 $-1 -92.000000000000014 -120.99999999999993 6.2500000000000133 -3.5527136788005009e-014 -1.8426867998067281e-042 10 F -0.74500100000000069 F 0.99500099999999914 #
vertex $-1 -1 $-1 $44 $78 #
straight-curve $-1 -1 $-1 -94 -118.99999999999993 6.2500000000000071 3.5527136788005009e-014 1.8426867998067281e-042 -10 F -0.99500099999999914 F 0.74500100000000069 #
point $-1 -1 $-1 -92.000000000000014 -120.99999999999993 5 #
point $-1 -1 $-1 -94 -118.99999999999991 5 #
face $-1 -1 $-1 $76 $79 $3 $-1 $80 reversed single #
loop $-1 -1 $-1 $81 $82 $32 #
plane-surface $-1 -1 $-1 -100.16369155720099 -111.86484893602277 4.9999999999999289 0 7.1054273576009766e-015 -1 -10 0 0 forward_v I I I I #
loop $-1 -1 $-1 $-1 $83 $19 #
coedge $-1 -1 $-1 $57 $57 $84 $85 forward $33 $-1 #
coedge $-1 -1 $-1 $86 $35 $61 $87 forward $20 $-1 #
coedge $-1 -1 $-1 $35 $86 $88 $89 forward $20 $-1 #
edge $-1 -1 $-1 $65 -0.78539816339744828 $90 0.78539816339744828 $38 $91 forward @7 unknown #
coedge $-1 -1 $-1 $37 $36 $58 $87 reversed $13 $-1 #
coedge $-1 -1 $-1 $43 $92 $36 $63 forward $73 $-1 #
edge $-1 -1 $-1 $93 -0.59181542213994298 $49 0.60818457786005631 $62 $94 forward @7 unknown #
coedge $-1 -1 $-1 $40 $38 $95 $96 reversed $9 $-1 #
vertex $-1 -1 $-1 $39 $97 #
straight-curve $-1 -1 $-1 -92.000000000000014 -118.99999999999991 5 10 0 0 F -1.5999999999999996 F 0 #
coedge $-1 -1 $-1 $98 $99 $40 $68 forward $100 $-1 #
edge $-1 -1 $-1 $70 -0.47533592175598116 $101 1.1246640782440185 $67 $102 forward @7 unknown #
coedge $-1 -1 $-1 $45 $41 $99 $103 reversed $46 $-1 #
vertex $-1 -1 $-1 $68 $104 #
straight-curve $-1 -1 $-1 -92.000000000000014 -128.4322408730699 5 0 10 0 I I #
coedge $-1 -1 $-1 $105 $43 $45 $75 forward $73 $-1 #
loop $-1 -1 $-1 $-1 $106 $107 #
ellipse-curve $-1 -1 $-1 -94.000000000000028 -120.99999999999993 10.000000000000021 0 0 1 1.4142135623730954 1.4142135623730954 4.7102773760513427e-015 1 I I #
edge $-1 -1 $-1 $47 -0.078957534297723342 $108 0.66426655300927528 $72 $109 forward @7 unknown #
face $-1 -1 $-1 $110 $46 $3 $-1 $111 reversed single #
point $-1 -1 $-1 -92.000000000000028 -120.99999999999993 10 #
point $-1 -1 $-1 -94.000000000000028 -118.99999999999993 10 #
loop $-1 -1 $-1 $112 $113 $53 #
cone-surface $-1 -1 $-1 -100.16369155720099 -105.61484893602272 7.4999999999999467 0 -7.1054273576009766e-015 1 0 -7.4999999999999645 -5.3290705182007388e-014 1 I I 0 1 7.4999999999999645 forward I I I I #
loop $-1 -1 $-1 $-1 $84 $32 #
coedge $-1 -1 $-1 $82 $82 $114 $115 forward $54 $-1 #
coedge $-1 -1 $-1 $83 $83 $116 $117 reversed $56 $-1 #
coedge $-1 -1 $-1 $84 $84 $57 $85 reversed $81 $-1 #
edge $-1 -1 $-1 $118 0 $118 6.2831853071795862 $84 $119 forward @7 unknown #
coedge $-1 -1 $-1 $59 $58 $92 $120 forward $20 $-1 #
edge $-1 -1 $-1 $65 -0.375 $93 0.125 $61 $121 forward @7 tangent #
coedge $-1 -1 $-1 $122 $95 $59 $89 reversed $123 $-1 #
edge $-1 -1 $-1 $124 -0.125 $90 0.375 $88 $125 forward @7 tangent #
vertex $-1 -1 $-1 $60 $126 #
ellipse-curve $-1 -1 $-1 -106.00000000000001 -120.99999999999993 5 0 0 1 -1.4142135623730954 1.4142135623730954 0 1 I I #
coedge $-1 -1 $-1 $62 $106 $86 $120 reversed $73 $-1 #
vertex $-1 -1 $-1 $63 $127 #
straight-curve $-1 -1 $-1 -100.08184577860058 -118.99999999999993 10 10 1.4184042862066261e-027 0 I I #
coedge $-1 -1 $-1 $88 $128 $64 $96 forward $123 $-1 #
edge $-1 -1 $-1 $101 0 $90 0.74322408730699863 $64 $129 forward @7 unknown #
point $-1 -1 $-1 -106.00000000000001 -118.99999999999991 5 #
coedge $-1 -1 $-1 $130 $67 $128 $131 forward $100 $-1 #
coedge $-1 -1 $-1 $67 $132 $69 $103 forward $100 $-1 #
loop $-1 -1 $-1 $-1 $98 $133 #
vertex $-1 -1 $-1 $68 $134 #
straight-curve $-1 -1 $-1 -96.753359217559819 -128.4322408730699 5 -10 -0 -0 I I #
edge $-1 -1 $-1 $108 -0.75000000000000111 $70 -0.25000000000000117 $99 $135 forward @7 unknown #
point $-1 -1 $-1 -92.000000000000014 -128.4322408730699 5 #
coedge $-1 -1 $-1 $136 $72 $132 $137 reversed $73 $-1 #
coedge $-1 -1 $-1 $92 $138 $122 $139 forward $73 $-1 #
face $-1 -1 $-1 $140 $141 $3 $-1 $142 forward single #
vertex $-1 -1 $-1 $103 $143 #
straight-curve $-1 -1 $-1 -92.000000000000028 -121.78957534297716 10 0 -10 0 I I #
face $-1 -1 $-1 $107 $123 $3 $-1 $144 reversed single #
plane-surface $-1 -1 $-1 -92.000000000000014 -128.4322408730699 5 1 0 3.5527136788005009e-015 3.5527136788005009e-014 0 -10 forward_v I I I I #
loop $-1 -1 $-1 $-1 $114 $53 #
coedge $-1 -1 $-1 $113 $113 $145 $146 reversed $79 $-1 #
coedge $-1 -1 $-1 $114 $114 $82 $115 reversed $112 $-1 #
edge $-1 -1 $-1 $147 0 $147 6.2831853071795862 $114 $148 forward @7 unknown #
coedge $-1 -1 $-1 $116 $116 $83 $117 forward $149 $-1 #
edge $-1 -1 $-1 $150 0 $150 6.2831853071795862 $116 $151 forward @7 unknown #
vertex $-1 -1 $-1 $85 $152 #
ellipse-curve $-1 -1 $-1 -100.16369155720099 -105.61484893602271 5.0000000000000178 0 -7.1054273576009766e-015 1 0 -5.0000000000001599 -3.5527136788006234e-014 1 I I #
edge $-1 -1 $-1 $93 -0.78539816339744828 $124 0.78539816339744828 $86 $153 forward @7 unknown #
straight-curve $-1 -1 $-1 -106.00000000000001 -118.99999999999993 8.75 0 3.1964975098688127e-042 10 F -0.99500100000000002 F 0.7450009999999998 #
coedge $-1 -1 $-1 $128 $88 $106 $139 reversed $123 $-1 #
loop $-1 -1 $-1 $-1 $88 $110 #
vertex $-1 -1 $-1 $120 $154 #
straight-curve $-1 -1 $-1 -108 -120.99999999999993 8.75 -0 -3.1964975098688127e-042 -10 F -0.7450009999999998 F 0.99500100000000002 #
point $-1 -1 $-1 -108 -120.99999999999993 5 #
point $-1 -1 $-1 -106.00000000000001 -118.99999999999993 10 #
coedge $-1 -1 $-1 $95 $122 $98 $131 reversed $123 $-1 #
straight-curve $-1 -1 $-1 -108 -128.4322408730699 5 0 10 0 I I #
coedge $-1 -1 $-1 $155 $98 $138 $156 forward $100 $-1 #
edge $-1 -1 $-1 $101 0 $157 0.5 $98 $158 forward @7 unknown #
coedge $-1 -1 $-1 $99 $159 $105 $137 forward $100 $-1 #
face $-1 -1 $-1 $160 $100 $3 $-1 $161 forward single #
point $-1 -1 $-1 -108 -128.4322408730699 5 #
straight-curve $-1 -1 $-1 -92.000000000000014 -128.4322408730699 2.4999999999999885 3.5527136788005009e-014 0 -10 I I #
coedge $-1 -1 $-1 $162 $105 $163 $164 reversed $73 $-1 #
edge $-1 -1 $-1 $165 0 $108 0.6493281564880391 $132 $166 forward @7 unknown #
coedge $-1 -1 $-1 $106 $167 $130 $156 reversed $73 $-1 #
edge $-1 -1 $-1 $157 -0.66426655300927528 $124 0.078957534297723342 $106 $168 forward @7 unknown #
face $-1 -1 $-1 $169 $170 $3 $-1 $171 forward single #
loop $-1 -1 $-1 $73 $145 $107 #
plane-surface $-1 -1 $-1 -100.16369155720115 -115.1469098128844 10 0 0 1 10 0 0 forward_v I I I I #
point $-1 -1 $-1 -92.000000000000028 -128.4322408730699 10 #
plane-surface $-1 -1 $-1 -108 -128.4322408730699 10 -1 0 0 0 0 10 forward_v I I I I #
coedge $-1 -1 $-1 $145 $145 $113 $146 forward $141 $-1 #
edge $-1 -1 $-1 $172 0 $172 6.2831853071795862 $145 $173 forward @7 unknown #
vertex $-1 -1 $-1 $115 $174 #
ellipse-curve $-1 -1 $-1 -100.16369155720099 -105.61484893602271 4.9999999999999289 0 -7.1054273576009766e-015 1 0 -7.4999999999999467 -5.3290705182007262e-014 1 I I #
loop $-1 -1 $-1 $175 $116 $160 #
vertex $-1 -1 $-1 $117 $176 #
ellipse-curve $-1 -1 $-1 -100.16369155720099 -105.61484893602268 6.7723604502134549e-014 0 0 1 0 -5.0000000000000888 -3.5527136788005729e-014 1 I I #
point $-1 -1 $-1 -100.16369155720099 -110.61484893602287 4.9999999999999822 #
ellipse-curve $-1 -1 $-1 -106.00000000000001 -120.99999999999993 10 0 0 1 -1.4142135623730954 1.4142135623730954 0 1 I I #
point $-1 -1 $-1 -108 -120.99999999999993 10 #
coedge $-1 -1 $-1 $177 $130 $178 $179 reversed $100 $-1 #
edge $-1 -1 $-1 $157 2.249328156488037 $180 2.9313946244162707 $130 $166 forward @7 unknown #
vertex $-1 -1 $-1 $156 $181 #
straight-curve $-1 -1 $-1 -108 -128.4322408730699 5 0 0 10 I I #
coedge $-1 -1 $-1 $132 $177 $182 $183 forward $100 $-1 #
face $-1 -1 $-1 $-1 $149 $3 $-1 $184 reversed single #
plane-surface $-1 -1 $-1 -85.506718435119637 -128.4322408730699 0 0 -1 0 0 0 -10 forward_v I I I I #
coedge $-1 -1 $-1 $185 $136 $186 $187 reversed $73 $-1 #
coedge $-1 -1 $-1 $182 $188 $136 $164 forward $189 $-1 #
edge $-1 -1 $-1 $190 0 $165 1.0970322726001012 $163 $191 forward @7 unknown #
vertex $-1 -1 $-1 $183 $192 #
straight-curve $-1 -1 $-1 -85.506718435119637 -128.4322408730699 10 -10 0 0 F 0 F 2.9313946244162707 #
coedge $-1 -1 $-1 $138 $193 $194 $195 reversed $73 $-1 #
straight-curve $-1 -1 $-1 -108 -121.78957534297716 10 0 10 0 I I #
face $-1 -1 $-1 $196 $197 $3 $-1 $198 forward single #
loop $-1 -1 $-1 $-1 $194 $140 #
plane-surface $-1 -1 $-1 -114.82066467928234 -128.4322408730699 0 -1 0 0 0 0 10 forward_v I I I I #
vertex $-1 -1 $-1 $146 $199 #
ellipse-curve $-1 -1 $-1 -100.16369155720099 -105.61484893602275 10.000000000000068 -0 -0 -1 0 -7.4999999999999645 -5.3290705182007388e-014 1 I I #
point $-1 -1 $-1 -100.16369155720099 -113.11484893602267 4.9999999999998757 #
loop $-1 -1 $-1 $-1 $200 $160 #
point $-1 -1 $-1 -100.16369155720099 -110.6148489360227 -5.3290705182007514e-014 #
coedge $-1 -1 $-1 $159 $155 $200 $201 reversed $100 $-1 #
coedge $-1 -1 $-1 $194 $202 $155 $179 forward $170 $-1 #
edge $-1 -1 $-1 $203 0 $180 1 $178 $204 forward @7 unknown #
vertex $-1 -1 $-1 $179 $205 #
point $-1 -1 $-1 -108 -128.4322408730699 10 #
coedge $-1 -1 $-1 $206 $163 $159 $183 reversed $189 $-1 #
edge $-1 -1 $-1 $207 0 $165 1 $159 $208 forward @7 unknown #
plane-surface $-1 -1 $-1 -100.16369155720116 -115.14690981288439 0 0 0 1 10 0 0 forward_v I I I I #
coedge $-1 -1 $-1 $193 $162 $209 $210 reversed $73 $-1 #
coedge $-1 -1 $-1 $211 $212 $162 $187 forward $213 $-1 #
edge $-1 -1 $-1 $214 0 $190 1.6183027456749119 $186 $215 forward @7 unknown #
coedge $-1 -1 $-1 $163 $206 $211 $216 forward $189 $-1 #
loop $-1 -1 $-1 $-1 $163 $217 #
vertex $-1 -1 $-1 $216 $218 #
straight-curve $-1 -1 $-1 -85.506718435119637 -117.4619181470689 10 0 -10 0 F 0 F 1.0970322726001012 #
point $-1 -1 $-1 -85.506718435119637 -128.4322408730699 10 #
coedge $-1 -1 $-1 $167 $185 $219 $220 reversed $73 $-1 #
coedge $-1 -1 $-1 $221 $178 $167 $195 forward $170 $-1 #
edge $-1 -1 $-1 $180 0 $222 1.0970322726001012 $194 $223 forward @7 unknown #
face $-1 -1 $-1 $224 $225 $3 $-1 $226 forward single #
loop $-1 -1 $-1 $-1 $219 $169 #
plane-surface $-1 -1 $-1 -114.82066467928234 -117.4619181470689 0 -0.93836396676949496 0.34564876083767193 0 0 0 10 forward_v I I I I #
point $-1 -1 $-1 -100.16369155720099 -113.11484893602272 9.9999999999999112 #
coedge $-1 -1 $-1 $227 $228 $177 $201 forward $175 $-1 #
edge $-1 -1 $-1 $207 0 $203 2.9313946244162707 $200 $229 forward @7 unknown #
coedge $-1 -1 $-1 $178 $221 $227 $230 reversed $170 $-1 #
vertex $-1 -1 $-1 $201 $231 #
straight-curve $-1 -1 $-1 -114.82066467928234 -128.4322408730699 0 0 0 10 I I #
point $-1 -1 $-1 -114.82066467928234 -128.4322408730699 10 #
coedge $-1 -1 $-1 $188 $182 $228 $232 reversed $189 $-1 #
vertex $-1 -1 $-1 $201 $233 #
straight-curve $-1 -1 $-1 -85.506718435119637 -128.4322408730699 0 0 0 10 I I #
coedge $-1 -1 $-1 $234 $235 $185 $210 forward $225 $-1 #
edge $-1 -1 $-1 $236 0.70586014310520695 $214 3.1415926535897931 $209 $237 forward @7 unknown #
coedge $-1 -1 $-1 $238 $186 $188 $216 reversed $213 $-1 #
coedge $-1 -1 $-1 $186 $238 $234 $239 forward $213 $-1 #
loop $-1 -1 $-1 $-1 $186 $224 #
vertex $-1 -1 $-1 $239 $240 #
straight-curve $-1 -1 $-1 -91.100361822148017 -102.27634830841453 10 3.4564876083773575 -9.383639667694716 0 F 0 F 1.6183027456749119 #
edge $-1 -1 $-1 $241 0 $190 1 $188 $242 forward @7 unknown #
face $-1 -1 $-1 $133 $189 $3 $-1 $243 forward single #
point $-1 -1 $-1 -85.506718435119637 -117.4619181470689 10 #
coedge $-1 -1 $-1 $244 $245 $193 $220 forward $197 $-1 #
edge $-1 -1 $-1 $222 0 $236 1.6183027456748711 $219 $246 forward @7 unknown #
coedge $-1 -1 $-1 $202 $194 $245 $247 reversed $170 $-1 #
vertex $-1 -1 $-1 $247 $248 #
straight-curve $-1 -1 $-1 -114.82066467928234 -128.4322408730699 10 0 10 0 F 0 F 1.0970322726001012 #
face $-1 -1 $-1 $217 $213 $3 $-1 $249 forward single #
loop $-1 -1 $-1 $-1 $209 $196 #
cone-surface $-1 -1 $-1 -100.16369155720157 -105.61484893602278 0 0 0 1 -9.0633297350535553 -3.3385006276082585 0 1 I I 0 1 9.6586506473133547 forward I I I I #
coedge $-1 -1 $-1 $250 $200 $202 $230 forward $175 $-1 #
coedge $-1 -1 $-1 $200 $251 $206 $232 forward $175 $-1 #
straight-curve $-1 -1 $-1 -85.506718435119637 -128.4322408730699 0 -10 0 0 F 0 F 2.9313946244162707 #
edge $-1 -1 $-1 $203 0 $252 1.0970322726001012 $227 $253 forward @7 unknown #
point $-1 -1 $-1 -114.82066467928234 -128.4322408730699 0 #
edge $-1 -1 $-1 $241 0 $207 1.0970322726001012 $228 $254 forward @7 unknown #
point $-1 -1 $-1 -85.506718435119637 -128.4322408730699 0 #
coedge $-1 -1 $-1 $255 $209 $212 $239 reversed $225 $-1 #
coedge $-1 -1 $-1 $209 $255 $244 $256 forward $225 $-1 #
vertex $-1 -1 $-1 $256 $257 #
ellipse-curve $-1 -1 $-1 -100.16369155720157 -105.61484893602278 10 0 0 -1 -9.0633297350535553 -3.3385006276082585 -0 1 F 0.70586014310520695 F 3.1415926535897931 #
coedge $-1 -1 $-1 $212 $211 $251 $258 reversed $213 $-1 #
edge $-1 -1 $-1 $259 0 $214 1 $212 $260 forward @7 tangent #
point $-1 -1 $-1 -91.100361822148017 -102.27634830841453 10 #
vertex $-1 -1 $-1 $258 $261 #
straight-curve $-1 -1 $-1 -85.506718435119637 -117.4619181470689 0 0 0 10 I I #
plane-surface $-1 -1 $-1 -85.506718435119637 -117.4619181470689 0 1 0 0 0 0 -10 forward_v I I I I #
coedge $-1 -1 $-1 $262 $219 $235 $256 reversed $197 $-1 #
coedge $-1 -1 $-1 $219 $262 $221 $247 forward $197 $-1 #
straight-curve $-1 -1 $-1 -114.82066467928234 -117.4619181470689 10 3.4564876083767193 9.3836396676949505 0 F 0 F 1.6183027456748711 #
edge $-1 -1 $-1 $252 0 $222 1 $245 $263 forward @7 unknown #
point $-1 -1 $-1 -114.82066467928234 -117.4619181470689 10 #
plane-surface $-1 -1 $-1 -91.100361822148017 -102.27634830841453 0 0.93836396676947154 0.34564876083773577 0 0 0 -10 forward_v I I I I #
coedge $-1 -1 $-1 $264 $227 $262 $265 forward $175 $-1 #
coedge $-1 -1 $-1 $228 $264 $238 $258 forward $175 $-1 #
vertex $-1 -1 $-1 $230 $266 #
straight-curve $-1 -1 $-1 -114.82066467928234 -128.4322408730699 0 0 10 0 F 0 F 1.0970322726001012 #
straight-curve $-1 -1 $-1 -85.506718435119637 -117.4619181470689 0 0 -10 0 F 0 F 1.0970322726001012 #
coedge $-1 -1 $-1 $235 $234 $264 $267 reversed $225 $-1 #
edge $-1 -1 $-1 $268 0 $236 1 $235 $269 forward @7 tangent #
point $-1 -1 $-1 -109.22702129225513 -102.27634830841453 10 #
edge $-1 -1 $-1 $259 0 $241 1.6183027456749119 $251 $270 forward @7 unknown #
vertex $-1 -1 $-1 $267 $271 #
straight-curve $-1 -1 $-1 -91.100361822148017 -102.27634830841453 0 0 0 10 I I #
point $-1 -1 $-1 -85.506718435119637 -117.4619181470689 0 #
coedge $-1 -1 $-1 $245 $244 $250 $265 reversed $197 $-1 #
straight-curve $-1 -1 $-1 -114.82066467928234 -117.4619181470689 0 0 0 10 I I #
coedge $-1 -1 $-1 $251 $250 $255 $267 forward $175 $-1 #
edge $-1 -1 $-1 $252 0 $268 1.6183027456748711 $250 $272 forward @7 unknown #
point $-1 -1 $-1 -114.82066467928234 -117.4619181470689 0 #
edge $-1 -1 $-1 $268 0.70586014310520695 $259 3.1415926535897931 $264 $273 forward @7 unknown #
vertex $-1 -1 $-1 $265 $274 #
straight-curve $-1 -1 $-1 -109.22702129225513 -102.27634830841453 0 0 0 10 I I #
straight-curve $-1 -1 $-1 -91.100361822148017 -102.27634830841453 0 3.4564876083773575 -9.383639667694716 0 F 0 F 1.6183027456749119 #
point $-1 -1 $-1 -91.100361822148017 -102.27634830841453 0 #
straight-curve $-1 -1 $-1 -114.82066467928234 -117.4619181470689 0 3.4564876083767193 9.3836396676949505 0 F 0 F 1.6183027456748711 #
ellipse-curve $-1 -1 $-1 -100.16369155720157 -105.61484893602278 0 0 0 -1 -9.0633297350535553 -3.3385006276082585 -0 1 F 0.70586014310520695 F 3.1415926535897931 #
point $-1 -1 $-1 -109.22702129225513 -102.27634830841453 0 #
End-of-ACIS-data 